<svg width="457" height="438" viewBox="0 0 457 438" fill="none" xmlns="http://www.w3.org/2000/svg"><path d="M340.336 36.928h-3.004v-3.004" stroke="#263238" stroke-linecap="round" stroke-linejoin="round"/><path d="M337.332 30.56V13.737" stroke="#263238" stroke-linecap="round" stroke-linejoin="round" stroke-dasharray="4.8 4.8"/><path d="M337.332 12.055V9.05h3.004" stroke="#263238" stroke-linecap="round" stroke-linejoin="round"/><path d="M343.7 9.05h24.753" stroke="#263238" stroke-linecap="round" stroke-linejoin="round" stroke-dasharray="4.58 4.58"/><path d="M370.016 9.05h3.004v3.365M376.023 37.41v3.003h-3.004" stroke="#263238" stroke-linecap="round" stroke-linejoin="round"/><path d="M369.775 40.413h-24.754" stroke="#263238" stroke-linecap="round" stroke-linejoin="round" stroke-dasharray="4.58 4.58"/><path d="M343.339 40.413h-3.004V37.41" stroke="#263238" stroke-linecap="round" stroke-linejoin="round"/><path d="M340.335 33.924V17.222" stroke="#263238" stroke-linecap="round" stroke-linejoin="round" stroke-dasharray="4.8 4.8"/><path d="M340.335 15.42v-3.005h3.004" stroke="#263238" stroke-linecap="round" stroke-linejoin="round"/><path d="M346.704 12.415h24.753" stroke="#263238" stroke-linecap="round" stroke-linejoin="round" stroke-dasharray="4.58 4.58"/><path d="M373.019 12.415h3.004v3.004" stroke="#263238" stroke-linecap="round" stroke-linejoin="round"/><path d="M376.023 18.904v16.703" stroke="#263238" stroke-linecap="round" stroke-linejoin="round" stroke-dasharray="4.8 4.8"/><path d="M29.238 387.439h-3.004v-3.004" stroke="#263238" stroke-linecap="round" stroke-linejoin="round"/><path d="M26.234 380.95v-16.702" stroke="#263238" stroke-linecap="round" stroke-linejoin="round" stroke-dasharray="4.8 4.8"/><path d="M26.234 362.565v-3.004h3.004" stroke="#263238" stroke-linecap="round" stroke-linejoin="round"/><path d="M32.482 359.561h24.754" stroke="#263238" stroke-linecap="round" stroke-linejoin="round" stroke-dasharray="4.58 4.58"/><path d="M58.918 359.561h3.004v3.365M64.925 387.799v3.004h-3.004" stroke="#263238" stroke-linecap="round" stroke-linejoin="round"/><path d="M58.677 390.803H33.924" stroke="#263238" stroke-linecap="round" stroke-linejoin="round" stroke-dasharray="4.58 4.58"/><path d="M32.242 390.803h-3.004v-3.004" stroke="#263238" stroke-linecap="round" stroke-linejoin="round"/><path d="M29.238 384.435v-16.823" stroke="#263238" stroke-linecap="round" stroke-linejoin="round" stroke-dasharray="4.8 4.8"/><path d="M29.238 365.93v-3.004h3.004" stroke="#263238" stroke-linecap="round" stroke-linejoin="round"/><path d="M35.486 362.926h24.753" stroke="#263238" stroke-linecap="round" stroke-linejoin="round" stroke-dasharray="4.58 4.58"/><path d="M61.921 362.926h3.004v3.004" stroke="#263238" stroke-linecap="round" stroke-linejoin="round"/><path d="M64.926 369.415v16.702" stroke="#263238" stroke-linecap="round" stroke-linejoin="round" stroke-dasharray="4.8 4.8"/><path d="M420.003 376.384h-3.004v-3.004" stroke="#263238" stroke-linecap="round" stroke-linejoin="round"/><path d="M416.999 369.895v-16.702" stroke="#263238" stroke-linecap="round" stroke-linejoin="round" stroke-dasharray="4.8 4.8"/><path d="M416.999 351.39v-3.004h3.004" stroke="#263238" stroke-linecap="round" stroke-linejoin="round"/><path d="M423.367 348.386h24.753" stroke="#263238" stroke-linecap="round" stroke-linejoin="round" stroke-dasharray="4.58 4.58"/><path d="M449.683 348.386h3.004v3.485M455.69 376.744v3.004h-3.004" stroke="#263238" stroke-linecap="round" stroke-linejoin="round"/><path d="M449.442 379.748h-24.754" stroke="#263238" stroke-linecap="round" stroke-linejoin="round" stroke-dasharray="4.58 4.58"/><path d="M423.006 379.748h-3.004v-3.004" stroke="#263238" stroke-linecap="round" stroke-linejoin="round"/><path d="M420.002 373.26v-16.703" stroke="#263238" stroke-linecap="round" stroke-linejoin="round" stroke-dasharray="4.8 4.8"/><path d="M420.002 354.875v-3.004h3.004" stroke="#263238" stroke-linecap="round" stroke-linejoin="round"/><path d="M426.371 351.871h24.633" stroke="#263238" stroke-linecap="round" stroke-linejoin="round" stroke-dasharray="4.58 4.58"/><path d="M452.686 351.871h3.004v3.004" stroke="#263238" stroke-linecap="round" stroke-linejoin="round"/><path d="M455.69 358.24v16.822" stroke="#263238" stroke-linecap="round" stroke-linejoin="round" stroke-dasharray="4.8 4.8"/><path d="M49.185 28.998H46.18v-3.004" stroke="#263238" stroke-linecap="round" stroke-linejoin="round"/><path d="M46.18 22.509V5.806" stroke="#263238" stroke-linecap="round" stroke-linejoin="round" stroke-dasharray="4.8 4.8"/><path d="M46.18 4.004V1h3.005" stroke="#263238" stroke-linecap="round" stroke-linejoin="round"/><path d="M52.429 1h24.753" stroke="#263238" stroke-linecap="round" stroke-linejoin="round" stroke-dasharray="4.58 4.58"/><path d="M78.864 1h3.004v3.485M84.873 29.358v3.004h-3.004" stroke="#263238" stroke-linecap="round" stroke-linejoin="round"/><path d="M78.504 32.362H53.87" stroke="#263238" stroke-linecap="round" stroke-linejoin="round" stroke-dasharray="4.58 4.58"/><path d="M52.189 32.362h-3.004v-3.004" stroke="#263238" stroke-linecap="round" stroke-linejoin="round"/><path d="M49.185 25.873V9.171" stroke="#263238" stroke-linecap="round" stroke-linejoin="round" stroke-dasharray="4.8 4.8"/><path d="M49.185 7.489V4.485h3.004" stroke="#263238" stroke-linecap="round" stroke-linejoin="round"/><path d="M55.433 4.485h24.753" stroke="#263238" stroke-linecap="round" stroke-linejoin="round" stroke-dasharray="4.58 4.58"/><path d="M81.869 4.485h3.004v3.004" stroke="#263238" stroke-linecap="round" stroke-linejoin="round"/><path d="M84.873 10.853v16.823" stroke="#263238" stroke-linecap="round" stroke-linejoin="round" stroke-dasharray="4.8 4.8"/><path d="M5.566 215.007H1v-3.004" stroke="#263238" stroke-linecap="round" stroke-linejoin="round"/><path d="M1 208.278V180.04" stroke="#263238" stroke-linecap="round" stroke-linejoin="round" stroke-dasharray="5.23 5.23"/><path d="M1 178.118v-3.004h3.004" stroke="#263238" stroke-linecap="round" stroke-linejoin="round"/><path d="M7.85 175.114h18.384" stroke="#263238" stroke-linecap="round" stroke-linejoin="round" stroke-dasharray="5.29 5.29"/><path d="M28.157 175.114h3.004v3.605M32.723 178.719h3.004v3.004" stroke="#263238" stroke-linecap="round" stroke-linejoin="round"/><path d="M35.727 184.967v26.435l-4.085 4.086" stroke="#263238" stroke-linecap="round" stroke-linejoin="round" stroke-dasharray="4.39 4.39"/><path d="m30.56 216.569-2.163 2.163h-3.004" stroke="#263238" stroke-linecap="round" stroke-linejoin="round"/><path d="M20.827 218.732h-9.974" stroke="#263238" stroke-linecap="round" stroke-linejoin="round" stroke-dasharray="6.37 6.37"/><path d="M8.57 218.732H5.566v-3.004" stroke="#263238" stroke-linecap="round" stroke-linejoin="round"/><path d="M5.566 211.883v-28.238" stroke="#263238" stroke-linecap="round" stroke-linejoin="round" stroke-dasharray="5.23 5.23"/><path d="M5.567 181.723v-3.004H8.57" stroke="#263238" stroke-linecap="round" stroke-linejoin="round"/><path d="M12.415 178.719H30.8" stroke="#263238" stroke-linecap="round" stroke-linejoin="round" stroke-dasharray="5.29 5.29"/><path d="M32.723 211.402h3.004l-2.163 2.043M30.56 216.569l-2.163 2.163v-3.004M28.397 214.406v-3.004h3.004M301.043 309.094h-4.566v-3.004" stroke="#263238" stroke-linecap="round" stroke-linejoin="round"/><path d="M296.477 302.244v-28.238" stroke="#263238" stroke-linecap="round" stroke-linejoin="round" stroke-dasharray="5.23 5.23"/><path d="M296.477 272.084v-3.004h3.004" stroke="#263238" stroke-linecap="round" stroke-linejoin="round"/><path d="M303.326 269.08h18.505" stroke="#263238" stroke-linecap="round" stroke-linejoin="round" stroke-dasharray="5.29 5.29"/><path d="M323.633 269.08h3.004v3.725M328.319 272.805h3.004v3.004" stroke="#263238" stroke-linecap="round" stroke-linejoin="round"/><path d="M331.324 278.933v26.435l-4.086 4.086" stroke="#263238" stroke-linecap="round" stroke-linejoin="round" stroke-dasharray="4.39 4.39"/><path d="m326.036 310.656-2.042 2.042h-3.004" stroke="#263238" stroke-linecap="round" stroke-linejoin="round"/><path d="M316.303 312.698h-9.853" stroke="#263238" stroke-linecap="round" stroke-linejoin="round" stroke-dasharray="6.37 6.37"/><path d="M304.047 312.698h-3.004v-3.004" stroke="#263238" stroke-linecap="round" stroke-linejoin="round"/><path d="M301.043 305.969v-28.238" stroke="#263238" stroke-linecap="round" stroke-linejoin="round" stroke-dasharray="5.23 5.23"/><path d="M301.043 275.809v-3.004h3.004" stroke="#263238" stroke-linecap="round" stroke-linejoin="round"/><path d="M307.892 272.805h18.505" stroke="#263238" stroke-linecap="round" stroke-linejoin="round" stroke-dasharray="5.29 5.29"/><path d="M328.32 305.368h3.004l-2.163 2.163M326.037 310.656l-2.043 2.042v-3.004M323.994 308.372v-3.004h3.004" stroke="#263238" stroke-linecap="round" stroke-linejoin="round"/><path d="M305.128 29.118H65.526v407.587h239.602V29.118Z" fill="#BFBFBF"/><path opacity=".3" d="M298.519 35.847h-71.977v73.539h71.977v-73.54Z" fill="#000" fill-opacity=".7"/><path d="M285.902 51.828h-.601v-1.322c0-.96-.721-1.802-1.562-1.802h-29.8c-.841 0-1.442-.6-1.562-1.562l-.24-1.682c-.121-.842-.721-1.563-1.562-1.563h-7.811c-.841 0-1.442.601-1.562 1.563l-.24 1.682c-.121.841-.721 1.562-1.562 1.562h-1.442c-.842 0-1.562.841-1.562 1.802v45.06c0 .962.72 1.803 1.562 1.803h45.541c.12 0 .36 0 .48-.12h1.683a1.898 1.898 0 0 0 1.922-1.922V53.87c.241-1.082-.601-2.043-1.682-2.043Z" fill="#12A9C6"/><path opacity=".5" d="M239.159 95.206V53.751c0-1.082.841-1.923 1.923-1.923h44.099v-1.322c0-.96-.721-1.802-1.562-1.802h-29.8c-.841 0-1.442-.6-1.562-1.562l-.24-1.682c-.121-.842-.721-1.563-1.563-1.563h-7.81c-.841 0-1.442.601-1.562 1.563l-.24 1.682c-.121.841-.721 1.562-1.563 1.562h-1.442c-.841 0-1.562.841-1.562 1.802v45.06c0 .962.721 1.803 1.562 1.803h45.542c.12 0 .36 0 .48-.12h-43.138c-.6 0-1.562-.961-1.562-2.043Z" fill="#fff"/><path opacity=".7" d="M285.902 51.828H241.202a1.898 1.898 0 0 0-1.923 1.923v41.455c0 1.082.841 1.923 1.923 1.923h44.82a1.899 1.899 0 0 0 1.923-1.923V53.751c-.121-.962-.962-1.923-2.043-1.923Z" fill="#fff"/><path d="M262.951 85.473c-6.248 0-11.655-8.892-12.857-11.055.721-1.322 3.124-5.407 6.368-8.17l-.721-1.082c-3.965 3.485-6.488 8.531-6.729 8.772-.12.24-.12.6 0 .96.241.482 6.249 12.017 13.819 12.017 2.043 0 3.965-.841 5.648-2.043l-.721-1.081c-1.442 1.081-3.125 1.682-4.807 1.682ZM276.77 74.058c-.241-.48-6.249-12.016-13.819-12.016-2.042 0-3.965.84-5.647 2.043l.721 1.08c1.562-1.08 3.124-1.681 4.926-1.681 6.249 0 11.656 8.892 12.858 11.054-.721 1.322-3.125 5.408-6.369 8.172l.721 1.08c3.965-3.484 6.489-8.53 6.729-8.77 0-.361 0-.722-.12-.962Z" fill="#12A9C6"/><path d="M262.951 80.787c.841 0 1.562-.36 2.283-1.082l-.721-1.081c-.48.36-.961.721-1.562.721-1.682 0-3.124-2.163-3.124-4.806 0-.842.12-1.683.481-2.404l-.721-1.081c-.481.961-.721 2.163-.721 3.484 0 3.365 1.802 6.249 4.085 6.249ZM262.951 68.17c-.841 0-1.562.36-2.283 1.081l.721 1.082c.481-.36.961-.721 1.562-.721 1.682 0 3.124 2.163 3.124 4.806 0 .841-.12 1.683-.48 2.403l.721 1.082c.48-.961.721-2.163.721-3.485-.121-3.364-1.923-6.248-4.086-6.248ZM253.939 59.759c-.12 0-.24.12-.36.24-.241.24-.241.72 0 1.081l18.024 27.998c.12.12.24.24.36.24.121 0 .241-.12.361-.24.24-.24.24-.72 0-1.081L254.3 59.999c-.121-.12-.241-.24-.361-.24Z" fill="#12A9C6"/><path d="M285.301 51.828v-1.322c0-.96-.721-1.802-1.562-1.802h-29.8c-.841 0-1.442-.6-1.562-1.562l-.24-1.682c-.121-.842-.721-1.563-1.562-1.563h-7.811c-.841 0-1.442.601-1.562 1.563l-.24 1.682c-.121.841-.721 1.562-1.562 1.562h-1.442c-.842 0-1.562.841-1.562 1.802v45.06c0 .962.72 1.803 1.562 1.803" stroke="#263238" stroke-miterlimit="10" stroke-linecap="round" stroke-linejoin="round" stroke-dasharray="5 5"/><path d="M285.902 51.828H241.202a1.898 1.898 0 0 0-1.923 1.923v41.455c0 1.082.841 1.923 1.923 1.923h44.82a1.899 1.899 0 0 0 1.923-1.923V53.751c-.121-.962-.962-1.923-2.043-1.923Z" stroke="#263238" stroke-miterlimit="10" stroke-linecap="round" stroke-linejoin="round" stroke-dasharray="5 5"/><path opacity=".3" d="M220.775 35.847h-71.977v73.539h71.977v-73.54Z" fill="#000" fill-opacity=".7"/><path d="M157.81 44.018H150c-.841 0-1.442.6-1.562 1.562l-.241 1.682c-.12.841-.721 1.562-1.562 1.562h-1.201c-.841 0-1.562.841-1.562 1.803v45.06c0 .961.721 1.803 1.562 1.803M140.988 44.378h-7.811c-.841 0-1.442.601-1.562 1.562l-.24 1.683c-.12.84-.721 1.562-1.562 1.562h-1.442c-.841 0-1.562.84-1.562 1.802v45.06c0 .962.721 1.803 1.562 1.803M124.045 44.739h-7.81c-.841 0-1.442.6-1.562 1.562l-.241 1.682c-.12.841-.721 1.562-1.562 1.562h-1.442c-.841 0-1.562.841-1.562 1.802v45.061c0 .961.721 1.802 1.562 1.802M107.222 45.1h-7.81c-.841 0-1.442.6-1.562 1.561l-.24 1.682c-.12.842-.721 1.563-1.563 1.563h-1.441c-.842 0-1.563.84-1.563 1.802v45.06c0 .962.721 1.803 1.563 1.803" stroke="#263238" stroke-miterlimit="10" stroke-linecap="round" stroke-linejoin="round" stroke-dasharray="5 5"/><path d="M208.278 51.828h-.601v-1.322c0-.96-.721-1.802-1.562-1.802h-29.8c-.841 0-1.442-.6-1.562-1.562l-.24-1.682c-.121-.842-.721-1.563-1.562-1.563h-7.811c-.841 0-1.442.601-1.562 1.563l-.24 1.682c-.121.841-.721 1.562-1.562 1.562h-1.442c-.842 0-1.563.841-1.563 1.802v45.06c0 .962.721 1.803 1.563 1.803h45.541c.12 0 .36 0 .48-.12h1.683a1.898 1.898 0 0 0 1.922-1.922V53.87c.241-1.082-.601-2.043-1.682-2.043Z" fill="#12A9C6"/><path opacity=".5" d="M161.535 95.207V53.75c0-1.082.841-1.923 1.923-1.923h44.099v-1.322c0-.96-.721-1.802-1.562-1.802h-29.8c-.841 0-1.442-.6-1.562-1.562l-.24-1.682c-.121-.841-.721-1.562-1.563-1.562h-7.81c-.841 0-1.442.6-1.562 1.562l-.24 1.682c-.121.841-.721 1.562-1.563 1.562h-1.442c-.841 0-1.562.841-1.562 1.803v45.06c0 .961.721 1.802 1.562 1.802h45.542c.12 0 .36 0 .48-.12h-42.777c-1.082 0-1.923-.961-1.923-2.042Z" fill="#fff"/><path opacity=".7" d="M208.278 51.828h-44.82a1.898 1.898 0 0 0-1.923 1.923v41.455c0 1.082.841 1.923 1.923 1.923h44.82a1.898 1.898 0 0 0 1.922-1.923V53.751c0-.962-.841-1.923-1.922-1.923Z" fill="#fff"/><path d="M185.327 85.473c-6.248 0-11.655-8.892-12.857-11.055.721-1.321 3.124-5.407 6.368-8.17l-.721-1.082c-3.965 3.485-6.488 8.532-6.729 8.772-.12.24-.12.6 0 .961.241.48 6.249 12.016 13.819 12.016 2.043 0 3.965-.84 5.648-2.043l-.721-1.081c-1.442 1.082-3.125 1.682-4.807 1.682ZM199.146 74.058c-.241-.48-6.249-12.016-13.819-12.016-2.042 0-3.965.841-5.647 2.043l.721 1.081c1.562-1.081 3.124-1.682 4.926-1.682 6.249 0 11.656 8.892 12.858 11.055-.721 1.321-3.125 5.407-6.369 8.17l.721 1.082c3.965-3.485 6.489-8.531 6.729-8.772 0-.36 0-.72-.12-.961Z" fill="#12A9C6"/><path d="M185.327 80.787c.841 0 1.562-.36 2.283-1.081l-.721-1.082c-.48.36-.961.721-1.562.721-1.682 0-3.124-2.163-3.124-4.806 0-.841.12-1.683.481-2.404l-.721-1.081c-.481.961-.721 2.163-.721 3.485 0 3.364 1.802 6.248 4.085 6.248ZM185.327 68.17c-.841 0-1.562.36-2.283 1.081l.721 1.082c.481-.36.961-.721 1.562-.721 1.682 0 3.124 2.163 3.124 4.806 0 .842-.12 1.683-.48 2.404l.721 1.081c.48-.961.72-2.163.72-3.485-.12-3.364-1.922-6.248-4.085-6.248ZM176.315 59.759c-.12 0-.24.12-.36.24-.241.24-.241.721 0 1.082l18.024 27.997c.12.12.24.24.36.24s.241-.12.361-.24c.24-.24.24-.72 0-1.081l-18.024-27.998c-.121-.12-.241-.24-.361-.24Z" fill="#12A9C6"/><path d="M207.677 51.828v-1.322c0-.96-.721-1.802-1.562-1.802h-29.8c-.841 0-1.442-.6-1.562-1.562l-.24-1.682c-.121-.842-.721-1.563-1.562-1.563h-7.811c-.841 0-1.442.601-1.562 1.563l-.24 1.682c-.121.841-.721 1.562-1.562 1.562h-1.442c-.842 0-1.563.841-1.563 1.802v45.06c0 .962.721 1.803 1.563 1.803" stroke="#263238" stroke-miterlimit="10" stroke-linecap="round" stroke-linejoin="round" stroke-dasharray="5 5"/><path d="M208.278 51.828h-44.82a1.898 1.898 0 0 0-1.923 1.923v41.455c0 1.082.841 1.923 1.923 1.923h44.82a1.898 1.898 0 0 0 1.922-1.923V53.751c0-.962-.841-1.923-1.922-1.923ZM90.28 45.1h-7.81c-.842 0-1.443.6-1.563 1.561l-.24 1.682c-.12.842-.721 1.563-1.562 1.563h-1.442c-.841 0-1.562.84-1.562 1.802v45.06c0 .962.72 1.803 1.562 1.803" stroke="#263238" stroke-miterlimit="10" stroke-linecap="round" stroke-linejoin="round" stroke-dasharray="5 5"/><path opacity=".3" d="M298.639 114.913h-71.976v73.539h71.976v-73.539Z" fill="#000" fill-opacity=".7"/><path d="M286.022 131.015h-.601v-1.322c0-.961-.721-1.803-1.562-1.803h-29.8c-.841 0-1.442-.6-1.562-1.562l-.24-1.682c-.12-.841-.721-1.562-1.562-1.562h-7.811c-.841 0-1.442.601-1.562 1.562l-.24 1.682c-.12.841-.721 1.562-1.562 1.562h-1.442c-.841 0-1.562.842-1.562 1.803v45.06c0 .962.721 1.803 1.562 1.803h45.541c.12 0 .36 0 .48-.12h1.683a1.898 1.898 0 0 0 1.922-1.923v-41.456c.361-1.201-.6-2.042-1.682-2.042Z" fill="#12A9C6"/><path opacity=".5" d="M239.399 174.393v-41.456c0-1.081.842-1.922 1.923-1.922h44.099v-1.322c0-.961-.721-1.803-1.562-1.803h-29.8c-.841 0-1.442-.6-1.562-1.562l-.24-1.682c-.12-.841-.721-1.562-1.562-1.562h-7.811c-.841 0-1.442.601-1.562 1.562l-.24 1.682c-.12.841-.721 1.562-1.562 1.562h-1.442c-.841 0-1.562.842-1.562 1.803v45.06c0 .962.721 1.803 1.562 1.803h45.541c.12 0 .36 0 .48-.12h-43.137c-.721-.121-1.563-.962-1.563-2.043Z" fill="#fff"/><path opacity=".7" d="M286.022 131.015H241.322a1.898 1.898 0 0 0-1.923 1.922v41.456c0 1.081.842 1.922 1.923 1.922h44.82a1.898 1.898 0 0 0 1.923-1.922v-41.456c0-1.081-.962-1.922-2.043-1.922Z" fill="#fff"/><path d="M263.071 164.66c-6.248 0-11.655-8.892-12.857-11.055.721-1.322 3.124-5.407 6.369-8.171l-.721-1.082c-3.966 3.485-6.489 8.532-6.729 8.772-.121.241-.121.601 0 .961.24.481 6.248 12.017 13.818 12.017 2.043 0 3.965-.842 5.648-2.043l-.721-1.082c-1.442.962-3.004 1.683-4.807 1.683ZM276.89 153.124c-.24-.48-6.248-12.016-13.819-12.016-2.042 0-3.965.841-5.647 2.043l.721 1.081c1.562-1.081 3.124-1.682 4.926-1.682 6.249 0 11.656 8.892 12.858 11.055-.721 1.322-3.125 5.407-6.369 8.171l.721 1.081c3.965-3.484 6.489-8.531 6.729-8.771 0-.241 0-.721-.12-.962Z" fill="#12A9C6"/><path d="M263.071 159.853c.841 0 1.562-.36 2.283-1.081l-.721-1.082c-.48.361-.961.721-1.562.721-1.682 0-3.124-2.163-3.124-4.806 0-.841.12-1.682.481-2.403l-.721-1.082c-.481.962-.721 2.163-.721 3.485.12 3.485 1.922 6.248 4.085 6.248ZM263.072 147.356c-.841 0-1.562.361-2.283 1.082l.721 1.081c.48-.36.961-.721 1.562-.721 1.682 0 3.124 2.163 3.124 4.807 0 .841-.12 1.682-.481 2.403l.721 1.082c.481-.962.721-2.163.721-3.485 0-3.485-1.802-6.249-4.085-6.249ZM254.059 138.945c-.12 0-.24.12-.36.241-.241.24-.241.72 0 1.081l18.024 27.998c.12.12.24.24.36.24.121 0 .241-.12.361-.24.24-.241.24-.721 0-1.082l-18.024-27.997c-.12-.241-.241-.241-.361-.241Z" fill="#12A9C6"/><path d="M285.421 131.015v-1.322c0-.961-.721-1.803-1.562-1.803h-29.8c-.841 0-1.442-.6-1.562-1.562l-.24-1.682c-.12-.841-.721-1.562-1.562-1.562h-7.811c-.841 0-1.442.601-1.562 1.562l-.24 1.682c-.12.841-.721 1.562-1.562 1.562h-1.442c-.841 0-1.562.842-1.562 1.803v45.06c0 .962.721 1.803 1.562 1.803" stroke="#263238" stroke-miterlimit="10" stroke-linecap="round" stroke-linejoin="round" stroke-dasharray="5 5"/><path d="M286.022 131.015H241.322a1.898 1.898 0 0 0-1.923 1.922v41.456c0 1.081.842 1.922 1.923 1.922h44.82a1.898 1.898 0 0 0 1.923-1.922v-41.456c0-1.081-.962-1.922-2.043-1.922Z" stroke="#263238" stroke-miterlimit="10" stroke-linecap="round" stroke-linejoin="round" stroke-dasharray="5 5"/><path opacity=".3" d="M221.015 114.913h-71.976v73.539h71.976v-73.539Z" fill="#000" fill-opacity=".7"/><path d="M158.051 123.204h-7.811c-.841 0-1.442.601-1.562 1.562l-.24 1.682c-.12.842-.721 1.563-1.562 1.563h-1.442c-.841 0-1.562.841-1.562 1.802v45.06c0 .962.721 1.803 1.562 1.803M141.108 123.445h-7.69c-.841 0-1.442.6-1.562 1.562l-.241 1.682c-.12.841-.721 1.562-1.562 1.562h-1.442c-.841 0-1.562.841-1.562 1.802v45.061c0 .961.721 1.802 1.562 1.802M124.285 123.805h-7.81c-.841 0-1.442.601-1.562 1.562l-.24 1.682c-.121.841-.721 1.562-1.563 1.562h-1.321c-.841 0-1.562.842-1.562 1.803v44.94c0 .961.721 1.803 1.562 1.803M107.343 124.165h-7.81c-.842 0-1.443.601-1.563 1.563l-.24 1.682c-.12.841-.721 1.562-1.562 1.562h-1.442c-.841 0-1.562.841-1.562 1.802v45.061c0 .961.72 1.802 1.562 1.802" stroke="#263238" stroke-miterlimit="10" stroke-linecap="round" stroke-linejoin="round" stroke-dasharray="5 5"/><path d="M208.398 131.015h-.601v-1.322c0-.961-.721-1.803-1.562-1.803h-29.8c-.841 0-1.442-.6-1.562-1.562l-.24-1.682c-.12-.841-.721-1.562-1.562-1.562h-7.811c-.841 0-1.442.601-1.562 1.562l-.24 1.682c-.12.841-.721 1.562-1.562 1.562h-1.442c-.841 0-1.562.842-1.562 1.803v45.06c0 .962.721 1.803 1.562 1.803h45.541c.12 0 .36 0 .48-.12h1.683a1.898 1.898 0 0 0 1.922-1.923v-41.456c.241-1.201-.601-2.042-1.682-2.042Z" fill="#12A9C6"/><path opacity=".5" d="M161.775 174.393v-41.456c0-1.081.842-1.922 1.923-1.922h44.099v-1.322c0-.961-.721-1.803-1.562-1.803h-29.8c-.841 0-1.442-.6-1.562-1.562l-.24-1.682c-.12-.841-.721-1.562-1.562-1.562h-7.811c-.841 0-1.442.601-1.562 1.562l-.24 1.682c-.12.841-.721 1.562-1.562 1.562h-1.442c-.841 0-1.562.842-1.562 1.803v45.06c0 .962.721 1.803 1.562 1.803h45.541c.12 0 .36 0 .48-.12h-43.137c-.721-.121-1.563-.962-1.563-2.043Z" fill="#fff"/><path opacity=".7" d="M208.398 131.015H163.698a1.898 1.898 0 0 0-1.923 1.922v41.456c0 1.081.842 1.922 1.923 1.922h44.7a1.898 1.898 0 0 0 1.923-1.922v-41.456a1.898 1.898 0 0 0-1.923-1.922Z" fill="#fff"/><path d="M185.447 164.66c-6.248 0-11.655-8.892-12.857-11.055.721-1.322 3.124-5.407 6.369-8.171l-.721-1.082c-3.966 3.485-6.489 8.532-6.729 8.772-.121.241-.121.601 0 .961.24.481 6.248 12.017 13.818 12.017 2.043 0 3.965-.842 5.648-2.043l-.721-1.082c-1.442.962-3.124 1.683-4.807 1.683ZM199.266 153.124c-.24-.48-6.248-12.016-13.819-12.016-2.042 0-3.965.841-5.647 2.043l.721 1.081c1.562-1.081 3.124-1.682 4.926-1.682 6.249 0 11.656 8.892 12.858 11.055-.721 1.322-3.125 5.407-6.369 8.171l.721 1.081c3.965-3.484 6.489-8.531 6.729-8.771 0-.241 0-.721-.12-.962Z" fill="#12A9C6"/><path d="M185.447 159.853c.841 0 1.562-.36 2.283-1.081l-.721-1.082c-.48.361-.961.721-1.562.721-1.682 0-3.124-2.163-3.124-4.806 0-.841.12-1.682.481-2.403l-.721-1.082c-.481.962-.721 2.163-.721 3.485 0 3.485 1.922 6.248 4.085 6.248ZM185.447 147.356c-.841 0-1.562.361-2.283 1.082l.721 1.081c.481-.36.961-.721 1.562-.721 1.682 0 3.124 2.163 3.124 4.807 0 .841-.12 1.682-.48 2.403l.721 1.082c.48-.962.721-2.163.721-3.485 0-3.485-1.803-6.249-4.086-6.249ZM176.435 138.945c-.12 0-.24.12-.36.241-.241.24-.241.72 0 1.081l18.024 27.998c.12.12.24.24.36.24.121 0 .241-.12.361-.24.24-.241.24-.721 0-1.082l-18.024-27.997c-.12-.241-.241-.241-.361-.241Z" fill="#12A9C6"/><path d="M207.797 131.015v-1.322c0-.961-.721-1.803-1.562-1.803h-29.8c-.841 0-1.442-.6-1.562-1.562l-.24-1.682c-.12-.841-.721-1.562-1.562-1.562h-7.811c-.841 0-1.442.601-1.562 1.562l-.24 1.682c-.12.841-.721 1.562-1.562 1.562h-1.442c-.841 0-1.562.842-1.562 1.803v45.06c0 .962.721 1.803 1.562 1.803" stroke="#263238" stroke-miterlimit="10" stroke-linecap="round" stroke-linejoin="round" stroke-dasharray="5 5"/><path d="M208.398 131.015H163.698a1.898 1.898 0 0 0-1.923 1.922v41.456c0 1.081.842 1.922 1.923 1.922h44.7a1.898 1.898 0 0 0 1.923-1.922v-41.456a1.898 1.898 0 0 0-1.923-1.922ZM90.4 124.165h-7.81c-.842 0-1.443.601-1.563 1.563l-.24 1.682c-.12.841-.721 1.562-1.562 1.562h-1.442c-.841 0-1.562.841-1.562 1.802v45.061c0 .961.72 1.802 1.562 1.802" stroke="#263238" stroke-miterlimit="10" stroke-linecap="round" stroke-linejoin="round" stroke-dasharray="5 5"/><path opacity=".3" d="M298.759 193.979h-71.976v73.539h71.976v-73.539Z" fill="#000" fill-opacity=".7"/><path d="M286.262 210.081h-.6v-1.322c0-.961-.721-1.803-1.563-1.803h-29.8c-.841 0-1.442-.6-1.562-1.562l-.24-1.682c-.12-.841-.721-1.562-1.562-1.562h-7.811c-.841 0-1.442.601-1.562 1.562l-.24 1.682c-.12.842-.721 1.562-1.562 1.562h-1.442c-.841 0-1.562.842-1.562 1.803v45.06c0 .962.721 1.803 1.562 1.803h45.541c.12 0 .361 0 .481-.12h1.682a1.899 1.899 0 0 0 1.923-1.923v-41.456c.24-1.201-.601-2.042-1.683-2.042Z" fill="#12A9C6"/><path opacity=".5" d="M239.52 253.459v-41.456c0-1.081.841-1.922 1.922-1.922h44.099v-1.322c0-.961-.721-1.803-1.562-1.803h-29.8c-.841 0-1.442-.6-1.562-1.562l-.24-1.682c-.12-.841-.721-1.562-1.562-1.562h-7.811c-.841 0-1.442.601-1.562 1.562l-.24 1.682c-.12.842-.721 1.562-1.562 1.562h-1.442c-.841 0-1.562.842-1.562 1.803v45.06c0 .962.721 1.803 1.562 1.803h45.541c.12 0 .36 0 .481-.12h-43.138c-.721-.12-1.562-.962-1.562-2.043Z" fill="#fff"/><path opacity=".7" d="M286.262 210.081H241.562a1.898 1.898 0 0 0-1.922 1.922v41.456c0 1.081.841 1.923 1.922 1.923h44.82a1.899 1.899 0 0 0 1.923-1.923v-41.456c-.12-1.081-.961-1.922-2.043-1.922Z" fill="#fff"/><path d="M263.191 243.726c-6.248 0-11.655-8.892-12.857-11.055.721-1.322 3.124-5.407 6.369-8.171l-.721-1.082c-3.966 3.485-6.489 8.532-6.729 8.772-.12.241-.12.601 0 .962.24.48 6.248 12.016 13.818 12.016 2.043 0 3.966-.841 5.648-2.043l-.721-1.082c-1.322.962-3.004 1.683-4.807 1.683ZM277.01 232.31c-.24-.48-6.248-12.016-13.818-12.016-2.043 0-3.966.841-5.648 2.043l.721 1.082c1.562-1.082 3.124-1.683 4.927-1.683 6.248 0 11.655 8.892 12.857 11.055-.721 1.322-3.124 5.407-6.369 8.171l.721 1.082c3.966-3.485 6.489-8.532 6.729-8.772 0-.361 0-.721-.12-.962Z" fill="#12A9C6"/><path d="M263.191 238.919c.842 0 1.563-.36 2.283-1.081l-.72-1.082c-.481.361-.962.721-1.563.721-1.682 0-3.124-2.162-3.124-4.806 0-.841.12-1.682.481-2.403l-.721-1.082c-.481.962-.721 2.163-.721 3.485.12 3.485 1.923 6.248 4.085 6.248ZM263.191 226.423c-.841 0-1.562.36-2.283 1.081l.721 1.081c.481-.36.961-.72 1.562-.72 1.683 0 3.124 2.162 3.124 4.806 0 .841-.12 1.682-.48 2.403l.721 1.082c.48-.962.721-2.163.721-3.485 0-3.365-1.803-6.248-4.086-6.248ZM254.179 218.011c-.12 0-.24.12-.36.241-.24.24-.24.721 0 1.081l18.024 27.998c.12.12.24.24.361.24.12 0 .24-.12.36-.24.24-.241.24-.721 0-1.082l-18.024-27.997c-.12-.121-.24-.241-.361-.241Z" fill="#12A9C6"/><path d="M285.541 210.081v-1.322c0-.961-.721-1.803-1.562-1.803h-29.8c-.841 0-1.442-.6-1.562-1.562l-.24-1.682c-.12-.841-.721-1.562-1.562-1.562h-7.811c-.841 0-1.442.601-1.562 1.562l-.24 1.682c-.12.842-.721 1.562-1.562 1.562h-1.442c-.841 0-1.562.842-1.562 1.803v45.06c0 .962.721 1.803 1.562 1.803" stroke="#263238" stroke-miterlimit="10" stroke-linecap="round" stroke-linejoin="round" stroke-dasharray="5 5"/><path d="M286.262 210.081H241.562a1.898 1.898 0 0 0-1.922 1.922v41.456c0 1.081.841 1.923 1.922 1.923h44.82a1.899 1.899 0 0 0 1.923-1.923v-41.456c-.12-1.081-.961-1.922-2.043-1.922Z" stroke="#263238" stroke-miterlimit="10" stroke-linecap="round" stroke-linejoin="round" stroke-dasharray="5 5"/><path opacity=".3" d="M221.135 193.979h-71.977v73.539h71.977v-73.539Z" fill="#000" fill-opacity=".7"/><path d="M158.171 202.27h-7.811c-.841 0-1.442.601-1.562 1.562l-.24 1.683c-.12.841-.721 1.562-1.562 1.562h-1.442c-.841 0-1.562.841-1.562 1.802v45.06c0 .962.721 1.803 1.562 1.803M141.228 202.631h-7.811c-.841 0-1.442.601-1.562 1.562l-.24 1.682c-.12.841-.721 1.562-1.562 1.562h-1.442c-.841 0-1.562.841-1.562 1.803v45.06c0 .961.721 1.803 1.562 1.803M124.405 202.991h-7.81c-.842 0-1.442.601-1.562 1.562l-.241 1.682c-.12.842-.721 1.563-1.562 1.563h-1.442c-.841 0-1.562.841-1.562 1.802v45.06c0 .962.721 1.803 1.562 1.803M107.463 203.232h-7.69c-.842 0-1.443.6-1.563 1.562l-.24 1.682c-.12.841-.721 1.562-1.562 1.562h-1.442c-.841 0-1.562.841-1.562 1.802v45.061c0 .961.72 1.802 1.562 1.802" stroke="#263238" stroke-miterlimit="10" stroke-linecap="round" stroke-linejoin="round" stroke-dasharray="5 5"/><path d="M208.638 210.081h-.721v-1.322c0-.961-.721-1.803-1.562-1.803h-29.8c-.841 0-1.442-.6-1.562-1.562l-.24-1.682c-.12-.841-.721-1.562-1.562-1.562h-7.811c-.841 0-1.442.601-1.562 1.562l-.24 1.682c-.12.842-.721 1.562-1.562 1.562h-1.442c-.841 0-1.562.842-1.562 1.803v45.06c0 .962.721 1.803 1.562 1.803h45.541c.12 0 .36 0 .481-.12h1.682a1.898 1.898 0 0 0 1.922-1.923v-41.456c.361-1.201-.6-2.042-1.562-2.042Z" fill="#12A9C6"/><path opacity=".5" d="M161.896 253.459v-41.456c0-1.081.841-1.922 1.922-1.922h44.099v-1.322c0-.961-.721-1.803-1.562-1.803h-29.8c-.841 0-1.442-.6-1.562-1.562l-.24-1.682c-.12-.841-.721-1.562-1.562-1.562h-7.811c-.841 0-1.442.601-1.562 1.562l-.24 1.682c-.12.842-.721 1.562-1.562 1.562h-1.442c-.841 0-1.562.842-1.562 1.803v45.06c0 .962.721 1.803 1.562 1.803h45.541c.12 0 .36 0 .481-.12h-43.138c-.721-.12-1.562-.962-1.562-2.043Z" fill="#fff"/><path opacity=".7" d="M208.638 210.081H163.818a1.898 1.898 0 0 0-1.922 1.922v41.456c0 1.081.841 1.923 1.922 1.923h44.82a1.899 1.899 0 0 0 1.923-1.923v-41.456c0-1.081-.961-1.922-1.923-1.922Z" fill="#fff"/><path d="M185.567 243.726c-6.248 0-11.655-8.892-12.857-11.055.721-1.322 3.124-5.407 6.369-8.171l-.721-1.082c-3.966 3.485-6.489 8.532-6.729 8.772-.12.241-.12.601 0 .962.24.48 6.248 12.016 13.818 12.016 2.043 0 3.966-.841 5.648-2.043l-.721-1.082c-1.322.962-3.004 1.683-4.807 1.683ZM199.386 232.31c-.24-.48-6.248-12.016-13.819-12.016-2.042 0-3.965.841-5.647 2.043l.721 1.082c1.562-1.082 3.124-1.683 4.926-1.683 6.249 0 11.656 8.892 12.858 11.055-.721 1.322-3.124 5.407-6.369 8.171l.721 1.082c3.966-3.485 6.489-8.532 6.729-8.772 0-.361 0-.721-.12-.962Z" fill="#12A9C6"/><path d="M185.567 238.919c.842 0 1.563-.36 2.283-1.081l-.72-1.082c-.481.361-.962.721-1.563.721-1.682 0-3.124-2.162-3.124-4.806 0-.841.12-1.682.481-2.403l-.721-1.082c-.481.962-.721 2.163-.721 3.485.12 3.485 1.923 6.248 4.085 6.248ZM185.567 226.423c-.841 0-1.562.36-2.283 1.081l.721 1.081c.481-.36.961-.72 1.562-.72 1.682 0 3.124 2.162 3.124 4.806 0 .841-.12 1.682-.48 2.403l.721 1.082c.48-.962.721-2.163.721-3.485 0-3.365-1.803-6.248-4.086-6.248ZM176.555 218.011c-.12 0-.24.12-.36.241-.24.24-.24.721 0 1.081l18.024 27.998c.12.12.24.24.361.24.12 0 .24-.12.36-.24.24-.241.24-.721 0-1.082l-18.024-27.997c-.12-.121-.24-.241-.361-.241Z" fill="#12A9C6"/><path d="M207.917 210.081v-1.322c0-.961-.721-1.803-1.562-1.803h-29.8c-.841 0-1.442-.6-1.562-1.562l-.24-1.682c-.12-.841-.721-1.562-1.562-1.562h-7.811c-.841 0-1.442.601-1.562 1.562l-.24 1.682c-.12.842-.721 1.562-1.562 1.562h-1.442c-.841 0-1.562.842-1.562 1.803v45.06c0 .962.721 1.803 1.562 1.803" stroke="#263238" stroke-miterlimit="10" stroke-linecap="round" stroke-linejoin="round" stroke-dasharray="5 5"/><path d="M208.638 210.081H163.818a1.898 1.898 0 0 0-1.922 1.922v41.456c0 1.081.841 1.923 1.922 1.923h44.82a1.899 1.899 0 0 0 1.923-1.923v-41.456c0-1.081-.961-1.922-1.923-1.922ZM90.64 203.232h-7.81c-.842 0-1.442.6-1.563 1.562l-.24 1.682c-.12.841-.72 1.562-1.562 1.562h-1.322c-.841 0-1.562.841-1.562 1.802v45.061c0 .961.721 1.802 1.562 1.802" stroke="#263238" stroke-miterlimit="10" stroke-linecap="round" stroke-linejoin="round" stroke-dasharray="5 5"/><path opacity=".3" d="M298.879 273.165h-71.976v73.539h71.976v-73.539Z" fill="#000" fill-opacity=".7"/><path d="M286.383 289.147h-.601v-1.322c0-.961-.721-1.802-1.562-1.802h-29.8c-.841 0-1.442-.601-1.562-1.562l-.24-1.683c-.121-.841-.721-1.562-1.563-1.562h-7.81c-.841 0-1.442.601-1.562 1.562l-.24 1.683c-.121.841-.721 1.562-1.563 1.562h-1.441c-.842 0-1.563.841-1.563 1.802v45.061c0 .961.721 1.802 1.563 1.802h45.541c.12 0 .36 0 .48-.12h1.683a1.898 1.898 0 0 0 1.922-1.923V291.19c.241-1.082-.601-2.043-1.682-2.043Z" fill="#12A9C6"/><path opacity=".5" d="M239.64 332.525v-41.456c0-1.081.841-1.922 1.923-1.922h44.099v-1.322c0-.961-.721-1.802-1.562-1.802h-29.8c-.841 0-1.442-.601-1.562-1.562l-.241-1.683c-.12-.841-.721-1.562-1.562-1.562h-7.81c-.841 0-1.442.601-1.562 1.562l-.241 1.683c-.12.841-.72 1.562-1.562 1.562h-1.442c-.841 0-1.562.841-1.562 1.802v45.061c0 .961.721 1.802 1.562 1.802h45.542c.12 0 .36 0 .48-.12h-42.777c-.961 0-1.923-.962-1.923-2.043Z" fill="#fff"/><path opacity=".7" d="M286.383 289.147h-44.82a1.898 1.898 0 0 0-1.923 1.922v41.456c0 1.081.841 1.923 1.923 1.923h44.82a1.898 1.898 0 0 0 1.922-1.923v-41.456c0-.961-.841-1.922-1.922-1.922Z" fill="#fff"/><path d="M263.432 322.792c-6.248 0-11.656-8.892-12.857-11.055.721-1.322 3.124-5.407 6.368-8.171l-.721-1.081c-3.965 3.484-6.488 8.531-6.729 8.772-.12.24-.12.6 0 .961.241.48 6.249 12.016 13.819 12.016 2.043 0 3.965-.841 5.648-2.043l-.721-1.081c-1.442 1.081-3.125 1.682-4.807 1.682ZM277.251 311.377c-.241-.481-6.249-12.016-13.819-12.016-2.042 0-3.965.841-5.647 2.042l.721 1.082c1.562-1.082 3.124-1.682 4.926-1.682 6.249 0 11.656 8.891 12.857 11.054-.72 1.322-3.124 5.408-6.368 8.171l.721 1.082c3.965-3.485 6.489-8.532 6.729-8.772 0-.36 0-.721-.12-.961Z" fill="#12A9C6"/><path d="M263.432 318.106c.841 0 1.562-.361 2.283-1.082l-.721-1.081c-.48.36-.961.721-1.562.721-1.682 0-3.124-2.163-3.124-4.807 0-.841.12-1.682.481-2.403l-.721-1.081c-.481.961-.721 2.163-.721 3.484 0 3.365 1.802 6.249 4.085 6.249ZM263.432 305.609c-.841 0-1.562.36-2.283 1.081l.721 1.082c.481-.361.961-.721 1.562-.721 1.682 0 3.124 2.163 3.124 4.806 0 .841-.12 1.683-.48 2.404l.721 1.081c.48-.961.72-2.163.72-3.485-.12-3.484-1.922-6.248-4.085-6.248ZM254.42 297.077c-.12 0-.24.121-.36.241-.241.24-.241.721 0 1.081l18.024 27.998c.12.12.24.24.36.24s.241-.12.361-.24c.24-.241.24-.721 0-1.082l-18.024-27.997c-.121-.12-.241-.241-.361-.241Z" fill="#12A9C6"/><path d="M285.782 289.147v-1.322c0-.961-.721-1.802-1.562-1.802h-29.8c-.841 0-1.442-.601-1.562-1.562l-.24-1.683c-.121-.841-.721-1.562-1.563-1.562h-7.81c-.841 0-1.442.601-1.562 1.562l-.24 1.683c-.121.841-.721 1.562-1.563 1.562h-1.441c-.842 0-1.563.841-1.563 1.802v45.061c0 .961.721 1.802 1.563 1.802" stroke="#263238" stroke-miterlimit="10" stroke-linecap="round" stroke-linejoin="round" stroke-dasharray="5 5"/><path d="M286.383 289.147h-44.82a1.898 1.898 0 0 0-1.923 1.922v41.456c0 1.082.841 1.923 1.923 1.923h44.82a1.898 1.898 0 0 0 1.922-1.923v-41.456c0-.961-.841-1.922-1.922-1.922Z" stroke="#263238" stroke-miterlimit="10" stroke-linecap="round" stroke-linejoin="round" stroke-dasharray="5 5"/><path opacity=".3" d="M221.255 273.165h-71.976v73.539h71.976v-73.539Z" fill="#000" fill-opacity=".7"/><path d="M158.291 281.336h-7.811c-.841 0-1.442.601-1.562 1.562l-.24 1.683c-.12.841-.721 1.562-1.562 1.562h-1.442c-.841 0-1.562.841-1.562 1.802v45.061c0 .961.721 1.802 1.562 1.802M141.468 281.697h-7.81c-.842 0-1.442.601-1.562 1.562l-.241 1.682c-.12.841-.721 1.562-1.562 1.562h-1.442c-.841 0-1.562.841-1.562 1.803v45.06c0 .962.721 1.803 1.562 1.803M124.526 282.057h-7.811c-.841 0-1.442.601-1.562 1.562l-.24 1.683c-.12.841-.721 1.562-1.562 1.562h-1.442c-.841 0-1.562.841-1.562 1.802v45.061c0 .961.721 1.802 1.562 1.802M107.703 282.418h-7.81c-.842 0-1.442.601-1.563 1.562l-.24 1.682c-.12.841-.72 1.562-1.562 1.562h-1.442c-.841 0-1.562.841-1.562 1.803v45.06c0 .961.72 1.803 1.562 1.803" stroke="#263238" stroke-miterlimit="10" stroke-linecap="round" stroke-linejoin="round" stroke-dasharray="5 5"/><path d="M208.758 289.147h-.6v-1.322c0-.961-.721-1.802-1.563-1.802h-29.8c-.841 0-1.442-.601-1.562-1.562l-.24-1.683c-.12-.841-.721-1.562-1.562-1.562h-7.811c-.841 0-1.442.601-1.562 1.562l-.24 1.683c-.12.841-.721 1.562-1.562 1.562h-1.202c-.841 0-1.562.841-1.562 1.802v45.061c0 .961.721 1.802 1.562 1.802h45.541c.121 0 .361 0 .481-.12h1.682a1.898 1.898 0 0 0 1.923-1.923V291.19c0-1.082-.841-2.043-1.923-2.043Z" fill="#12A9C6"/><path opacity=".5" d="M162.016 332.525v-41.456c0-1.081.841-1.922 1.922-1.922h44.099v-1.322c0-.961-.721-1.802-1.562-1.802h-29.8c-.841 0-1.442-.601-1.562-1.562l-.24-1.683c-.12-.841-.721-1.562-1.562-1.562H165.5c-.841 0-1.442.601-1.562 1.562l-.24 1.683c-.12.841-.721 1.562-1.562 1.562h-1.082c-.841 0-1.562.841-1.562 1.802v45.061c0 .961.721 1.802 1.562 1.802h45.541c.121 0 .361 0 .481-.12h-43.138c-1.081 0-1.922-.962-1.922-2.043Z" fill="#fff"/><path opacity=".7" d="M208.758 289.147h-44.7a1.898 1.898 0 0 0-1.922 1.922v41.456c0 1.081.841 1.923 1.922 1.923h44.82a1.899 1.899 0 0 0 1.923-1.923v-41.456c-.12-.961-.961-1.922-2.043-1.922Z" fill="#fff"/><path d="M185.808 322.792c-6.249 0-11.656-8.892-12.858-11.055.721-1.322 3.125-5.407 6.369-8.171l-.721-1.081c-3.965 3.484-6.489 8.531-6.729 8.772-.12.24-.12.6 0 .961.24.48 6.248 12.016 13.818 12.016 2.043 0 3.966-.841 5.648-2.043l-.721-1.081c-1.442 1.081-3.124 1.682-4.806 1.682ZM199.506 311.377c-.24-.481-6.248-12.016-13.818-12.016-2.043 0-3.966.841-5.648 2.042l.721 1.082c1.562-1.082 3.124-1.682 4.927-1.682 6.248 0 11.655 8.891 12.857 11.054-.721 1.322-3.124 5.408-6.369 8.171l.721 1.082c3.966-3.485 6.489-8.532 6.729-8.772.12-.36.12-.721-.12-.961Z" fill="#12A9C6"/><path d="M185.808 318.106c.841 0 1.562-.361 2.283-1.082l-.721-1.081c-.481.36-.962.721-1.562.721-1.683 0-3.125-2.163-3.125-4.807 0-.841.121-1.682.481-2.403l-.721-1.081c-.481.961-.721 2.163-.721 3.484 0 3.365 1.803 6.249 4.086 6.249ZM185.807 305.609c-.841 0-1.562.36-2.283 1.081l.721 1.082c.481-.361.962-.721 1.562-.721 1.683 0 3.125 2.163 3.125 4.806 0 .841-.12 1.683-.481 2.404l.721 1.081c.481-.961.721-2.163.721-3.485-.12-3.484-1.923-6.248-4.086-6.248ZM176.796 297.077c-.121 0-.241.121-.361.241-.24.24-.24.721 0 1.081l18.024 27.998c.12.12.241.24.361.24s.24-.12.36-.24c.241-.241.241-.721 0-1.082l-18.024-27.997c-.12-.12-.24-.241-.36-.241Z" fill="#12A9C6"/><path d="M208.158 289.147v-1.322c0-.961-.721-1.802-1.563-1.802h-29.8c-.841 0-1.442-.601-1.562-1.562l-.24-1.683c-.12-.841-.721-1.562-1.562-1.562h-7.811c-.841 0-1.442.601-1.562 1.562l-.24 1.683c-.12.841-.721 1.562-1.562 1.562h-1.202c-.841 0-1.562.841-1.562 1.802v45.061c0 .961.721 1.802 1.562 1.802" stroke="#263238" stroke-miterlimit="10" stroke-linecap="round" stroke-linejoin="round" stroke-dasharray="5 5"/><path d="M208.758 289.147h-44.7a1.898 1.898 0 0 0-1.922 1.922v41.456c0 1.082.841 1.923 1.922 1.923h44.82a1.898 1.898 0 0 0 1.923-1.923v-41.456c-.12-.961-.961-1.922-2.043-1.922ZM90.76 282.418h-7.81c-.841 0-1.442.601-1.563 1.562l-.24 1.682c-.12.841-.72 1.562-1.562 1.562h-1.442c-.841 0-1.562.841-1.562 1.803v45.06c0 .961.721 1.803 1.562 1.803" stroke="#263238" stroke-miterlimit="10" stroke-linecap="round" stroke-linejoin="round" stroke-dasharray="5 5"/><path opacity=".3" d="M299.12 352.231h-71.977v73.539h71.977v-73.539Z" fill="#000" fill-opacity=".7"/><path d="M286.503 368.333h-.601v-1.322c0-.961-.721-1.802-1.562-1.802h-29.8c-.841 0-1.442-.601-1.562-1.562l-.241-1.683c-.12-.841-.721-1.562-1.562-1.562h-7.81c-.841 0-1.442.601-1.562 1.562l-.241 1.683c-.12.841-.721 1.562-1.562 1.562h-1.442c-.841 0-1.562.841-1.562 1.802v45.061c0 .961.721 1.802 1.562 1.802h45.541c.12 0 .361 0 .481-.12h1.682a1.898 1.898 0 0 0 1.923-1.923v-41.455c.24-1.202-.601-2.043-1.682-2.043Z" fill="#12A9C6"/><path opacity=".5" d="M239.88 411.711v-41.456c0-1.081.841-1.922 1.923-1.922h44.099v-1.322c0-.961-.721-1.802-1.562-1.802h-29.8c-.841 0-1.442-.601-1.562-1.562l-.241-1.683c-.12-.841-.721-1.562-1.562-1.562h-7.81c-.841 0-1.442.601-1.562 1.562l-.241 1.683c-.12.841-.721 1.562-1.562 1.562h-1.442c-.841 0-1.562.841-1.562 1.802v45.061c0 .961.721 1.802 1.562 1.802h45.541c.12 0 .361 0 .481-.12h-43.138c-.721-.12-1.562-.961-1.562-2.043Z" fill="#fff"/><path opacity=".7" d="M286.502 368.333h-44.7a1.898 1.898 0 0 0-1.922 1.922v41.456c0 1.082.841 1.923 1.922 1.923h44.7a1.898 1.898 0 0 0 1.923-1.923v-41.456a1.898 1.898 0 0 0-1.923-1.922Z" fill="#fff"/><path d="M263.552 401.978c-6.249 0-11.656-8.892-12.857-11.055.72-1.322 3.124-5.407 6.368-8.171l-.721-1.081c-3.965 3.484-6.489 8.531-6.729 8.772-.12.24-.12.6 0 .961.24.48 6.248 12.016 13.819 12.016 2.042 0 3.965-.841 5.647-2.043l-.721-1.081c-1.442.961-3.004 1.682-4.806 1.682ZM277.37 390.443c-.24-.481-6.248-12.016-13.818-12.016-2.043 0-3.965.841-5.648 2.042l.721 1.082c1.562-1.082 3.124-1.683 4.927-1.683 6.248 0 11.656 8.892 12.857 11.055-.721 1.322-3.124 5.408-6.368 8.171l.721 1.082c3.965-3.485 6.488-8.532 6.729-8.772 0-.24 0-.601-.121-.961Z" fill="#12A9C6"/><path d="M263.552 397.172c.841 0 1.562-.361 2.283-1.082l-.721-1.081c-.481.36-.961.721-1.562.721-1.682 0-3.124-2.163-3.124-4.807 0-.841.12-1.682.48-2.403l-.721-1.081c-.48.961-.721 2.162-.721 3.484 0 3.485 1.923 6.249 4.086 6.249ZM263.552 384.675c-.842 0-1.562.36-2.283 1.081l.721 1.082c.48-.361.961-.721 1.562-.721 1.682 0 3.124 2.163 3.124 4.806 0 .841-.12 1.682-.481 2.403l.721 1.082c.481-.961.721-2.163.721-3.485 0-3.485-1.802-6.248-4.085-6.248ZM254.54 376.264c-.12 0-.241.12-.361.24-.24.24-.24.721 0 1.081l18.024 27.998c.121.12.241.24.361.24s.24-.12.36-.24c.241-.24.241-.721 0-1.082L254.9 376.504c-.12-.24-.24-.24-.36-.24Z" fill="#12A9C6"/><path d="M285.902 368.333v-1.322c0-.961-.721-1.802-1.562-1.802h-29.8c-.841 0-1.442-.601-1.562-1.562l-.241-1.683c-.12-.841-.721-1.562-1.562-1.562h-7.81c-.841 0-1.442.601-1.562 1.562l-.241 1.683c-.12.841-.721 1.562-1.562 1.562h-1.442c-.841 0-1.562.841-1.562 1.802v45.061c0 .961.721 1.802 1.562 1.802" stroke="#263238" stroke-miterlimit="10" stroke-linecap="round" stroke-linejoin="round" stroke-dasharray="5 5"/><path d="M286.502 368.333h-44.7a1.898 1.898 0 0 0-1.922 1.922v41.456c0 1.082.841 1.923 1.922 1.923h44.7a1.898 1.898 0 0 0 1.923-1.923v-41.456a1.898 1.898 0 0 0-1.923-1.922Z" stroke="#263238" stroke-miterlimit="10" stroke-linecap="round" stroke-linejoin="round" stroke-dasharray="5 5"/><path opacity=".3" d="M221.496 352.231h-71.977v73.539h71.977v-73.539Z" fill="#000" fill-opacity=".7"/><path d="M158.531 360.522h-7.81c-.842 0-1.442.601-1.562 1.562l-.241 1.683c-.12.841-.721 1.562-1.562 1.562h-1.442c-.841 0-1.562.841-1.562 1.802v45.061c0 .961.721 1.802 1.562 1.802M141.588 360.883h-7.81c-.841 0-1.442.601-1.562 1.562l-.241 1.682c-.12.841-.721 1.562-1.562 1.562h-1.442c-.841 0-1.562.842-1.562 1.803v45.06c0 .962.721 1.803 1.562 1.803M124.646 361.123h-7.811c-.841 0-1.442.601-1.562 1.562l-.24 1.683c-.12.841-.721 1.562-1.562 1.562h-1.442c-.841 0-1.562.841-1.562 1.802v45.061c0 .961.721 1.802 1.562 1.802M107.823 361.484h-7.81c-.842 0-1.442.601-1.563 1.562l-.24 1.682c-.12.841-.72 1.562-1.562 1.562h-1.442c-.841 0-1.562.841-1.562 1.803v45.06c0 .961.721 1.803 1.562 1.803" stroke="#263238" stroke-miterlimit="10" stroke-linecap="round" stroke-linejoin="round" stroke-dasharray="5 5"/><path d="M208.878 368.333h-.6v-1.322c0-.961-.721-1.802-1.562-1.802h-29.8c-.842 0-1.442-.601-1.563-1.562l-.24-1.683c-.12-.841-.721-1.562-1.562-1.562h-7.69c-.841 0-1.442.601-1.562 1.562l-.241 1.683c-.12.841-.721 1.562-1.562 1.562h-1.442c-.841 0-1.562.841-1.562 1.802v45.061c0 .961.721 1.802 1.562 1.802h45.662c.12 0 .36 0 .48-.12h1.682a1.898 1.898 0 0 0 1.923-1.923v-41.455c0-1.202-.841-2.043-1.923-2.043Z" fill="#12A9C6"/><path opacity=".5" d="M162.136 411.711v-41.456c0-1.081.841-1.922 1.922-1.922h44.1v-1.322c0-.961-.721-1.802-1.563-1.802h-29.8c-.841 0-1.442-.601-1.562-1.562l-.24-1.683c-.12-.841-.721-1.562-1.562-1.562h-7.57c-.841 0-1.442.601-1.562 1.562l-.241 1.683c-.12.841-.721 1.562-1.562 1.562h-1.442c-.841 0-1.562.841-1.562 1.802v45.061c0 .961.721 1.802 1.562 1.802h45.662c.12 0 .36 0 .48-.12h-43.138c-.961-.12-1.922-.961-1.922-2.043Z" fill="#fff"/><path opacity=".7" d="M208.878 368.333h-44.7a1.898 1.898 0 0 0-1.922 1.922v41.456c0 1.082.841 1.923 1.922 1.923h44.821a1.898 1.898 0 0 0 1.922-1.923v-41.456c-.12-1.081-.961-1.922-2.043-1.922Z" fill="#fff"/><path d="M185.928 401.978c-6.249 0-11.656-8.892-12.858-11.055.721-1.322 3.125-5.407 6.369-8.171l-.721-1.081c-3.965 3.484-6.489 8.531-6.729 8.772-.12.24-.12.6 0 .961.24.48 6.248 12.016 13.819 12.016 2.042 0 3.965-.841 5.647-2.043l-.721-1.081c-1.442.961-3.124 1.682-4.806 1.682ZM199.746 390.443c-.24-.481-6.248-12.016-13.818-12.016-2.043 0-3.965.841-5.648 2.042l.721 1.082c1.562-1.082 3.124-1.683 4.927-1.683 6.248 0 11.655 8.892 12.857 11.055-.721 1.322-3.124 5.408-6.368 8.171l.721 1.082c3.965-3.485 6.488-8.532 6.729-8.772 0-.24 0-.601-.121-.961Z" fill="#12A9C6"/><path d="M185.928 397.172c.841 0 1.562-.361 2.283-1.082l-.721-1.081c-.481.36-.961.721-1.562.721-1.682 0-3.124-2.163-3.124-4.807 0-.841.12-1.682.48-2.403l-.721-1.081c-.48.961-.721 2.162-.721 3.484 0 3.485 1.923 6.249 4.086 6.249ZM185.928 384.675c-.842 0-1.563.36-2.283 1.081l.72 1.082c.481-.361.962-.721 1.563-.721 1.682 0 3.124 2.163 3.124 4.806 0 .841-.12 1.682-.481 2.403l.721 1.082c.481-.961.721-2.163.721-3.485 0-3.485-1.802-6.248-4.085-6.248ZM176.916 376.264c-.12 0-.241.12-.361.24-.24.24-.24.721 0 1.081l18.024 27.998c.121.12.241.24.361.24s.24-.12.36-.24c.241-.24.241-.721 0-1.082l-18.024-27.997c-.12-.24-.24-.24-.36-.24Z" fill="#12A9C6"/><path d="M208.278 368.333v-1.322c0-.961-.721-1.802-1.562-1.802h-29.8c-.842 0-1.442-.601-1.563-1.562l-.24-1.683c-.12-.841-.721-1.562-1.562-1.562h-7.69c-.841 0-1.442.601-1.562 1.562l-.241 1.683c-.12.841-.721 1.562-1.562 1.562h-1.442c-.841 0-1.562.841-1.562 1.802v45.061c0 .961.721 1.802 1.562 1.802" stroke="#263238" stroke-miterlimit="10" stroke-linecap="round" stroke-linejoin="round" stroke-dasharray="5 5"/><path d="M208.878 368.333h-44.7a1.898 1.898 0 0 0-1.922 1.922v41.456c0 1.082.841 1.923 1.922 1.923h44.821a1.898 1.898 0 0 0 1.922-1.923v-41.456c-.12-1.081-.961-1.922-2.043-1.922ZM90.88 361.484h-7.81c-.841 0-1.442.601-1.562 1.562l-.24 1.682c-.12.841-.722 1.562-1.563 1.562h-1.442c-.84 0-1.562.841-1.562 1.803v45.06c0 .961.721 1.803 1.562 1.803" stroke="#263238" stroke-miterlimit="10" stroke-linecap="round" stroke-linejoin="round" stroke-dasharray="5 5"/><path opacity=".5" d="M142.189 29.118H65.526v407.587h76.663V29.118Z" fill="#fff"/><path d="M305.128 29.118H65.526v407.587h239.602V29.118Z" stroke="#263238" stroke-miterlimit="10" stroke-linecap="round" stroke-linejoin="round" stroke-dasharray="5 5"/><path d="M289.027 165.981h-69.814c-3.725 0-6.849-3.004-6.849-6.849V95.807c0-3.725 3.004-6.849 6.849-6.849h69.814c3.725 0 6.849 3.004 6.849 6.85v63.324c-.12 3.845-3.124 6.849-6.849 6.849Z" fill="#263238" stroke="#263238" stroke-miterlimit="10"/><path d="M289.027 165.981h-56.116c-3.725 0-6.849-3.004-6.849-6.849V95.807c0-3.725 3.004-6.849 6.849-6.849h56.116c3.725 0 6.849 3.004 6.849 6.85v63.324c-.12 3.845-3.124 6.849-6.849 6.849Z" fill="#263238"/><path opacity=".2" d="M289.027 165.981h-56.116c-3.725 0-6.849-3.004-6.849-6.849V95.807c0-3.725 3.004-6.849 6.849-6.849h56.116c3.725 0 6.849 3.004 6.849 6.85v63.324c-.12 3.845-3.124 6.849-6.849 6.849Z" fill="#fff"/><path d="M289.027 165.981h-56.116c-3.725 0-6.849-3.004-6.849-6.849V95.807c0-3.725 3.004-6.849 6.849-6.849h56.116c3.725 0 6.849 3.004 6.849 6.85v63.324c-.12 3.845-3.124 6.849-6.849 6.849Z" stroke="#263238" stroke-miterlimit="10"/><path d="M260.909 146.515c-10.814 0-19.947-15.26-21.989-18.865 1.321-2.283 5.407-9.253 11.054-14.059l-1.201-1.923c-6.729 5.888-11.175 14.54-11.536 15.141-.24.48-.24 1.081 0 1.562.481.841 10.695 20.668 23.672 20.668 3.485 0 6.729-1.442 9.613-3.485l-1.202-1.923c-2.523 1.683-5.407 2.884-8.411 2.884ZM284.581 126.809c-.481-.841-10.694-20.668-23.672-20.668-3.484 0-6.729 1.442-9.613 3.485l1.202 1.922c2.644-1.802 5.407-2.884 8.411-2.884 10.815 0 19.947 15.261 21.99 18.866-1.322 2.283-5.407 9.252-11.055 14.059l1.202 1.922c6.729-5.888 11.175-14.539 11.535-15.14.24-.481.24-1.082 0-1.562Z" fill="#12A9C6"/><path d="M260.909 138.344c1.442 0 2.764-.721 3.845-1.802l-1.201-1.803c-.841.721-1.682 1.082-2.644 1.082-2.884 0-5.287-3.725-5.287-8.291 0-1.562.241-2.884.721-4.206l-1.201-1.802c-.721 1.682-1.202 3.725-1.202 6.008 0 6.008 3.124 10.814 6.969 10.814ZM260.909 116.835c-1.442 0-2.764.721-3.845 1.803l1.202 1.802c.841-.721 1.682-1.081 2.643-1.081 2.884 0 5.287 3.725 5.287 8.291 0 1.562-.24 2.884-.721 4.205l1.202 1.803c.721-1.682 1.201-3.725 1.201-6.008 0-6.008-3.124-10.815-6.969-10.815ZM245.408 102.296c-.24 0-.36.12-.601.36-.36.481-.36 1.322 0 1.803l31.002 47.944c.12.24.361.361.601.361s.36-.121.601-.361c.36-.48.36-1.322 0-1.802l-31.002-47.945a.66.66 0 0 0-.601-.36Z" fill="#12A9C6"/><path d="M279.774 73.938v11.776h-8.531V73.938c0-9.613-7.691-17.424-17.183-17.664h-.601c-9.733 0-17.784 7.93-17.784 17.784v11.776h-8.531V74.058c0-14.42 11.775-26.195 26.195-26.195 14.659-.24 26.435 11.535 26.435 26.075Z" fill="#757575"/><path opacity=".5" d="M230.028 73.457c-.601 0-1.683-.961-1.082-4.566 1.202-7.09 9.132-19.947 24.513-19.947 15.14 0 20.788 13.579 20.788 13.579s-6.249-10.695-20.428-10.695c-18.384 0-20.187 21.63-23.791 21.63Z" fill="#fff"/><path opacity=".3" d="M271.243 85.713V73.938c0-9.613-7.691-17.424-17.183-17.664 0 0 6.849-1.923 13.938 4.326 7.09 6.248 6.249 23.551 6.249 23.551h.961V73.577l1.442 12.257h-5.407v-.12Z" fill="#000" fill-opacity=".7"/><path d="M279.774 73.938v11.776h-8.531V73.938c0-9.613-7.691-17.424-17.183-17.664h-.601c-9.733 0-17.784 7.93-17.784 17.784v11.776h-8.531V74.058c0-14.42 11.775-26.195 26.195-26.195 14.659-.24 26.435 11.535 26.435 26.075Z" stroke="#263238" stroke-miterlimit="10" stroke-linecap="round" stroke-linejoin="round"/><path d="m316.543 148.438-20.187-13.819s-1.922-2.162-3.725-3.845c-3.004-2.763-5.888-3.244-5.888-3.244-7.93 0-23.431-2.523-23.431-2.523s-.721 1.682 1.682 2.523c2.403.841 10.454 2.403 10.454 2.403s-3.364 2.524-1.562 4.206c0 0-1.923 1.682 1.562 4.326 0 0 .24 1.442.601 1.922.961 1.202 3.244 2.043 4.326.962 0 0 6.368 2.283 11.055 1.922l20.427 14.66 4.686-9.493Z" fill="#fff" stroke="#263238" stroke-miterlimit="10" stroke-linecap="round" stroke-linejoin="round"/><path d="M277.731 130.894s.361.842 0 1.563M276.409 132.096s1.682.24 2.403 1.322M273.886 134.259c.721 1.202 4.205 2.884 5.647 2.403M275.328 138.585s1.082.601 1.682.841c3.485 1.322 3.485-.961 3.485-.961M280.375 141.469s1.322-1.202 1.442-1.563c.36-.961-.961-1.682-.961-1.682" stroke="#263238" stroke-miterlimit="10" stroke-linecap="round" stroke-linejoin="round"/><path d="M286.022 129.092s-.961 1.081-2.042 1.322c-1.202.24-4.807 1.081-5.167 2.403-.361 1.322 1.682 5.527 1.682 5.527s2.403.241 1.682-3.244c0 0 1.322.24 3.004 2.043 1.682 1.922 3.845 3.364 5.047 2.643" fill="#fff"/><path d="M286.022 129.092s-.961 1.082-2.042 1.322c-1.202.24-4.807 1.081-5.167 2.403-.361 1.322 1.682 5.527 1.682 5.527s2.403.241 1.682-3.244c0 0 1.322.24 3.004 2.043 1.682 1.922 3.845 3.364 5.047 2.643" stroke="#263238" stroke-miterlimit="10" stroke-linecap="round" stroke-linejoin="round"/><path d="M407.626 407.866s.721 12.857-1.442 15.381c-2.163 2.523-8.291 7.45-8.171 9.493.12 1.922.841 4.085.841 4.085s10.694-.721 14.179-1.562c7.33-1.923 13.218-9.132 13.218-9.132l9.613-3.966 2.042-3.244s-6.608-11.295-12.977-15.381c-6.368-4.085-17.303 4.326-17.303 4.326Z" fill="#263238"/><path d="M361.964 238.919s42.658 171.11 43.859 170.87c1.202-.241 19.827.36 19.827.36l4.326-3.605-2.404-2.763.842-7.691-7.931-34.606s-7.57-34.486-7.57-40.975c0-6.369-3.966-52.27-1.923-62.965 2.043-10.334-49.026-18.625-49.026-18.625Z" fill="#263238"/><path d="m404.622 434.782-3.245 1.923h-9.012l-3.124-.841-4.807.841h-14.659c-2.043 0-8.892-1.923-8.892-1.923s.36-1.201.721-2.643c.36-1.322.841-2.764 1.201-3.605.842-1.803 8.532-3.365 11.656-4.566.721-.241 1.442-1.082 1.923-1.923 1.682-3.004 2.283-7.93 2.283-7.93s17.784-5.408 21.629 1.201c1.682 3.004 2.763 7.33 3.484 11.175.361 2.163.601 4.086.721 5.648.121 1.562.121 2.643.121 2.643Z" fill="#12A9C6"/><path opacity=".2" d="M403.66 426.371h-20.908s-1.201-1.562-2.042-2.403c-.481-.481-2.404-1.202-4.326-1.923 1.682-3.004 2.283-7.93 2.283-7.93s17.784-5.408 21.629 1.201c1.682 2.764 2.764 7.21 3.364 11.055Z" fill="#000" fill-opacity=".7"/><path opacity=".7" d="m404.622 434.782-3.245 1.923h-9.012l-3.124-.841-4.807.841h-14.659c-2.043 0-8.892-1.923-8.892-1.923s.36-1.201.721-2.643l13.338 2.884 10.694-.842 3.365-1.562 6.008 1.202s5.527-.961 9.372-1.923c.241 1.803.241 2.884.241 2.884Z" fill="#fff"/><path d="m404.622 434.782-3.245 1.923h-9.012l-3.124-.841-4.807.841h-14.659c-2.043 0-8.892-1.923-8.892-1.923s.36-1.201.721-2.643c.36-1.322.841-2.764 1.201-3.605.842-1.803 8.532-3.365 11.656-4.566.721-.241 1.442-1.082 1.923-1.923 1.682-3.004 2.283-7.93 2.283-7.93s17.784-5.408 21.629 1.201c1.682 3.004 2.763 7.33 3.484 11.175.361 2.163.601 4.086.721 5.648.121 1.562.121 2.643.121 2.643Z" stroke="#263238" stroke-miterlimit="10" stroke-linecap="round" stroke-linejoin="round"/><path d="M369.174 425.53s6.129.24 6.849 1.682c.721 1.442 8.292-2.884 8.292-2.884l3.004-6.368" stroke="#263238" stroke-miterlimit="10" stroke-linecap="round" stroke-linejoin="round"/><path d="M374.461 423.848s2.523.12 4.326 1.201M376.624 421.444s4.566-.24 6.128 1.322M365.569 428.414s5.768 2.043 8.892 2.163c3.124.12 3.966-.12 5.167 3.605" stroke="#263238" stroke-miterlimit="10" stroke-linecap="round" stroke-linejoin="round"/><path d="M361.483 432.619s13.098 2.404 13.579 2.404c.48 0 10.694-.842 10.694-.842l3.364-1.562s4.927 1.082 6.009 1.202c1.081.12 6.969-1.202 6.969-1.202M395.009 430.817s3.004-4.206 2.884-4.566c-.121-.361 4.085-1.202 4.085-1.202" stroke="#263238" stroke-miterlimit="10" stroke-linecap="round" stroke-linejoin="round"/><path d="M413.033 233.873v22.109l-6.129 23.312-2.283 47.223-2.643 9.132 3.484 31.122-.721 43.138 2.284 5.287-2.163 6.729-28.358-3.004 2.403-7.45-3.124-6.128.841-11.416-2.644-59.6-2.403-46.742s-5.888-25.354-10.094-51.429l51.55-2.283Z" fill="#757575"/><path opacity=".3" d="M412.912 241.323v3.364l-9.733.961-1.562 7.571s-8.171-4.446-8.892-6.008l-23.071 2.042 1.803 6.129 10.814-2.163-7.69 4.085 9.132 2.283-12.136 2.043 1.322 4.806-1.562 20.067c-1.082-4.566-4.807-21.749-8.292-41.095 8.051-1.202 16.583-2.523 16.823-2.764.36-.36 19.586-.961 33.044-1.321Z" fill="#000" fill-opacity=".7"/><path d="M413.033 233.873v22.109l-6.129 23.312-2.283 47.223-2.643 9.132 3.484 31.122-.721 43.138 2.284 5.287-2.163 6.729-28.358-3.004 2.403-7.45-3.124-6.128.841-11.416-2.644-59.6-2.403-46.742s-5.888-25.354-10.094-51.429l51.55-2.283Z" stroke="#263238" stroke-miterlimit="10" stroke-linecap="round" stroke-linejoin="round"/><path d="m371.577 287.585-1.802-28.839-4.086-5.527M389.241 233.873s.962 12.136 5.768 15.861c4.806 3.725 5.768 4.927 5.768 4.927M403.3 237.117l-1.442 18.865-3.605 23.312s-1.202 14.058-2.283 17.423c-1.082 3.364-1.082 11.535-1.082 13.098 0 1.562 2.284 14.659 1.082 18.144-1.202 3.485-2.283 3.845-1.082 6.489 1.202 2.643-.48 12.737-.48 12.737M394.408 354.515c-.24 3.604-.481 8.651 0 14.659.481 6.129 0 10.094-.361 13.218-.36 3.124 1.923 13.819 1.923 13.819v8.171M380.709 411.952l22.591 3.244-12.737-3.725M408.827 245.648v9.133l-1.442 3.965h3.605M371.577 257.304l7.931-2.523M369.775 258.746l9.733 1.682M365.689 246.85l1.923 6.369 1.081 2.763" stroke="#263238" stroke-miterlimit="10" stroke-linecap="round" stroke-linejoin="round"/><path d="M404.261 125.487s20.187 14.059 21.028 18.986c.841 5.046 13.098 54.673 11.536 58.518-1.562 3.965-18.145 17.063-18.145 17.063l1.923 14.66-2.764 2.763.361 4.326-57.077 5.167-3.124-6.969-2.283-.962s1.322-27.997 3.364-33.885c1.923-6.008.842-29.56.842-29.56s-26.556 8.291-32.084 5.888c-5.527-2.403-29.679-27.877-30.16-28.598-.361-.721-.841-2.644-.841-2.644l-2.403-2.763s2.162-2.283 3.364-6.489c1.202-4.326 2.523-5.768 2.523-5.768l4.326 3.485s.481-.601 4.086-.12c3.605.48 24.032 15.741 25.234 17.303 1.201 1.562 25.113-25.835 70.294-30.401Z" fill="#12A9C6"/><path opacity=".2" d="m342.258 180.16 7.93-6.008s-.961-17.303 0-17.063c.962.241 5.167 9.013 5.167 9.013l1.923-10.575 1.322 13.098.601 7.089c-2.284.721-9.734 2.884-16.943 4.446ZM417.719 237.718l.481 4.326-29.68 2.643 8.772-3.725-3.245-2.043 23.672-1.201ZM418.68 220.294l1.682 13.218c-3.605-.36-8.411-.841-9.372-.721-1.562.12-16.703-15.02-16.943-16.222-.24-1.081.961-13.578.961-13.578l2.884-.721 8.892-16.101s-5.287 1.201-6.008.24c-.721-1.082 6.008-10.935 6.008-10.935-.841-1.922-1.322-9.733-1.322-9.733l4.566 9.733 4.326 15.501-5.527 9.373-8.051 5.046 4.806 21.149c12.017-6.129 20.188-12.257 21.629-13.338-4.446 3.725-8.531 7.089-8.531 7.089ZM388.88 143.992s-8.291 4.206-10.934 1.802c-2.644-2.403-4.326-6.849-4.687-5.647-.36 1.322 0 3.484 0 3.484s.121.842-2.763-3.484c-1.202-1.803-1.562-3.845-1.562-5.768 1.321-.601 2.763-1.081 4.205-1.682.361 2.884 7.09 9.733 8.892 10.694 1.923.961 6.849.601 6.849.601ZM411.951 131.255c-6.368 3.965-16.222 2.643-16.222 2.643 3.605-2.403 6.249-5.888 7.811-8.291.24 0 .481 0 .721-.12 0 0 3.485 2.523 7.69 5.768ZM304.407 140.147s-1.682 6.368-5.167 8.772l-3.004.24-1.682-2.043.48-.481c2.043-1.201 3.846-2.403 4.446-3.244 1.322-1.923 4.927-3.244 4.927-3.244ZM367.131 190.014s24.874-11.416 24.513-11.175c-.36.24-20.307 16.822-24.513 16.822-4.205.12 0-5.647 0-5.647ZM399.094 232.911l-41.215 7.33-2.163-1.201s.24-4.086.48-9.373l23.192-7.21 7.69-13.578v9.132s8.892 8.652 10.694 10.935l1.322 3.965Z" fill="#000" fill-opacity=".7"/><path d="M404.261 125.487s20.187 14.059 21.028 18.986c.841 5.046 13.098 54.673 11.536 58.518-1.562 3.965-18.145 17.063-18.145 17.063l1.923 14.66-2.764 2.763.361 4.326-57.077 5.167-3.124-6.969-2.283-.962s1.322-27.997 3.364-33.885c1.923-6.008.841-29.56.841-29.56s-26.555 8.291-32.083 5.888c-5.527-2.403-29.679-27.877-30.16-28.598-.361-.721-.841-2.644-.841-2.644l-2.403-2.763s2.162-2.283 3.364-6.489c1.202-4.326 2.523-5.768 2.523-5.768l4.326 3.485s.481-.601 4.086-.12c3.605.48 24.032 15.741 25.234 17.303 1.201 1.562 25.113-25.835 70.294-30.401Z" stroke="#263238" stroke-miterlimit="10" stroke-linecap="round" stroke-linejoin="round"/><path d="M372.539 108.064s-1.683 7.33.841 17.423c2.523 10.214 7.69 14.66 7.69 14.66s7.69-2.644 8.892-6.97c1.202-4.325 0-24.032 0-24.032l-17.423-1.081Z" fill="#12A9C6"/><path opacity=".5" d="M372.539 108.064s-1.683 7.33.841 17.423c2.523 10.214 7.69 14.66 7.69 14.66s7.69-2.644 8.892-6.97c1.202-4.325 0-24.032 0-24.032l-17.423-1.081Z" fill="#000" fill-opacity=".7"/><path d="M372.539 108.064s-1.683 7.33.841 17.423c2.523 10.214 7.69 14.66 7.69 14.66s7.69-2.644 8.892-6.97c1.202-4.325 0-24.032 0-24.032l-17.423-1.081Z" stroke="#263238" stroke-miterlimit="10" stroke-linecap="round" stroke-linejoin="round"/><path d="M401.737 123.204s-2.883 9.493-7.69 12.136c-4.926 2.644-13.818 5.648-10.574.241 1.442-2.524 1.081-6.489.24-10.094-.961-4.085-2.523-7.69-2.523-7.69l.721-.601 12.256-11.055 7.57 17.063Z" fill="#fff" stroke="#263238" stroke-miterlimit="10" stroke-linecap="round" stroke-linejoin="round"/><path d="M391.764 112.99s-2.643 10.695-8.051 12.497c-.961-4.085-2.523-7.69-2.523-7.69l.721-.601 9.853-4.206Z" fill="#263238"/><path d="M384.555 77.062c10.934.841 14.058 11.295 13.097 18.625-1.922 15.261-8.531 26.436-17.183 25.835-8.531-.481-12.737-17.784-11.295-29.56 1.081-8.531 6.969-15.5 15.381-14.9Z" fill="#fff" stroke="#263238" stroke-miterlimit="10" stroke-linecap="round" stroke-linejoin="round"/><path d="M384.434 93.644s4.326-1.321 7.21 1.923M374.701 135.34s-2.163 6.129-1.201 9.253" stroke="#263238" stroke-miterlimit="10" stroke-linecap="round" stroke-linejoin="round"/><path d="M389.001 99.893c0 .721-.361 1.322-.841 1.322-.481 0-.842-.601-.842-1.322 0-.721.361-1.322.842-1.322.36-.12.841.6.841 1.322ZM376.383 99.292c0 .721-.36 1.322-.841 1.322-.48 0-.841-.601-.841-1.322 0-.721.361-1.322.841-1.322.481 0 .841.601.841 1.322Z" fill="#263238"/><path d="M376.384 93.284s-3.485-2.043-5.888 0M377.465 99.052s-.961 4.325-1.923 5.647c-.961 1.322 1.923 2.524 1.923 2.524M377.104 111.548s4.807-.48 4.927.962c.24 1.442-3.845 1.442-4.566 0" stroke="#263238" stroke-miterlimit="10" stroke-linecap="round" stroke-linejoin="round"/><path d="M394.768 80.427s-9.853-6.129-15.14-6.369c-5.287-.24-12.016 8.171-12.016 8.171h2.884s-4.086 3.965-4.086 7.69l4.086-4.325 2.042 3.604s1.562-4.325 9.493-4.926v2.763s6.969-2.523 10.935-1.441l-1.202 2.523 5.287-.841s1.442-3.004-2.283-6.85Z" fill="#263238"/><path d="M404.261 125.487s7.81-32.684 3.845-41.095c-3.965-8.291-10.815-8.291-10.815-8.291s-15.741-4.807-17.063-4.566c-1.321.12-6.969 6.248-5.527 5.527 8.892-5.167 22.59 9.493 22.59 9.493-1.562 4.926-6.488 36.409-8.411 40.134-1.802 3.725-6.368 11.175-6.368 11.175s-4.326-3.004-6.249-4.927c-1.922-1.922-3.845-16.101-3.845-16.101s0 15.62.841 18.264 8.652 9.493 8.652 9.493 7.089-.361 9.613-1.082" fill="#12A9C6"/><path d="M404.261 125.487s7.81-32.684 3.845-41.095c-3.965-8.291-10.815-8.291-10.815-8.291s-15.741-4.807-17.063-4.566c-1.321.12-6.969 6.248-5.527 5.527 8.892-5.167 22.59 9.493 22.59 9.493-1.562 4.926-6.488 36.409-8.411 40.134-1.802 3.725-6.368 11.175-6.368 11.175s-4.326-3.004-6.249-4.927c-1.922-1.922-3.845-16.101-3.845-16.101s0 15.62.841 18.264 8.652 9.493 8.652 9.493 7.089-.361 9.613-1.082M359.922 175.474s-4.927-21.389-1.322-29.079M334.087 155.527s.961 6.97-1.322 10.214" stroke="#263238" stroke-miterlimit="10" stroke-linecap="round" stroke-linejoin="round"/><path d="M404.261 125.487s-6.609 7.811-10.214 9.853M418.68 220.294l-14.419 6.97s-10.214-10.094-10.214-12.016c.121-1.803 0-6.609 0-6.609s13.579-5.888 15.862-9.493c2.403-3.725 4.806-6.729 4.806-6.729s7.931 1.923 9.012 3.004M422.406 188.812c-1.082.361-7.691 3.485-7.691 3.485s-5.047-18.625-5.888-20.788c-.721-2.163 3.966-18.986 6.729-20.908" stroke="#263238" stroke-miterlimit="10" stroke-linecap="round" stroke-linejoin="round"/><path d="M409.188 172.831c-5.167-3.485-4.927-13.458-4.927-13.458M409.188 229.186l-.361 1.442-4.566-3.484-10.214-11.896v-6.609l.962-5.648.961 2.043M361.964 202.991h12.016l20.067-2.884M400.656 175.474s-24.874 21.389-30.882 21.389M405.463 233.873s-39.894 6.609-43.499 7.089M408.827 186.409l-7.089 15.14M358.6 171.629s-5.167-8.772-6.489-12.256M304.767 138.344s-.24 7.09-3.725 8.772" stroke="#263238" stroke-miterlimit="10" stroke-linecap="round" stroke-linejoin="round"/></svg>